Original title: Tasogare Seibei
 
http://www.imdb.com/title/tt0351817/

Source: The.Twilight.Samurai.2002.720p.BluRay.x264-HD Thanks!

Subs: Arabic, Brazilian, Dutch, English, Farsi-Persian, German, Hungarian, Indonesian, Portuguese and Spanish.

Sample and screens included.

General
Complete name                            : The Twilight Samurai-720p MP4 AAC x264 BRRip 2002-CC.mp4
Format                                   : MPEG-4
Format profile                           : Base Media
Codec ID                                 : isom
File size                                : 3.11 GiB
Duration                                 : 2h 9mn
Overall bit rate mode                    : Variable
Overall bit rate                         : 3 452 Kbps
Encoded date                             : UTC 2013-01-06 16:41:53

Video
ID                                       : 1
Format                                   : AVC
Format/Info                              : Advanced Video Codec
Format profile                           : High@L4.1
Format settings, CABAC                   : Yes
Format settings, ReFrames                : 5 frames
Codec ID                                 : avc1
Codec ID/Info                            : Advanced Video Coding
Duration                                 : 2h 9mn
Bit rate                                 : 3 046 Kbps
Maximum bit rate                         : 9 783 Kbps
Width                                    : 1 280 pixels
Height                                   : 692 pixels
Display aspect ratio                     : 1.85:1
Frame rate mode                          : Variable
Frame rate                               : 23.976 fps
Minimum frame rate                       : 19.133 fps
Maximum frame rate                       : 24.390 fps
Color space                              : YUV
Chroma subsampling                       : 4:2:0
Bit depth                                : 8 bits
Scan type                                : Progressive
Bits/(Pixel*Frame)                       : 0.143
Stream size                              : 2.76 GiB (89%)
Writing library                          : x264 core 112

Audio
ID                                       : 2
Format                                   : AAC
Format/Info                              : Advanced Audio Codec
Format profile                           : LC
Codec ID                                 : 40
Duration                                 : 2h 9mn
Bit rate mode                            : Variable
Bit rate                                 : 384 Kbps
Maximum bit rate                         : 460 Kbps
Channel(s)                               : 6 channels
Channel positions                        : Front: L C R, Side: L R, LFE
Sampling rate                            : 48.0 KHz
Compression mode                         : Lossy
Delay relative to video                  : 83ms
Stream size                              : 354 MiB (11%)
Language                                 : Japanese

Enjoy...

Requested by DreamExtractor 

Coming soon: Apocalypse Hitler, The Big Heat, Frequency, Eternal Sunshine of the Spotless Mind and more..